<?xml version="1.0" standalone="no"?>
<!DOCTYPE svg PUBLIC "-//W3C//DTD SVG 20010904//EN"
 "http://www.w3.org/TR/2001/REC-SVG-20010904/DTD/svg10.dtd">
<svg version="1.0" xmlns="http://www.w3.org/2000/svg"
 width="201.000000pt" height="201.000000pt" viewBox="0 0 201.000000 201.000000"
 preserveAspectRatio="xMidYMid meet">
<metadata>
Created by potrace 1.11, written by Peter Selinger 2001-2013
</metadata>
<g transform="translate(0.000000,201.000000) scale(0.100000,-0.100000)"
fill="#000000" stroke="none">
<path d="M0 1005 l0 -1005 1005 0 1005 0 0 1005 0 1005 -1005 0 -1005 0 0
-1005z m990 -15 l0 -480 -480 0 -480 0 0 480 0 480 480 0 480 0 0 -480z m990
0 l0 -470 -470 0 -470 0 0 470 0 470 470 0 470 0 0 -470z"/>
<path d="M40 990 l0 -470 470 0 470 0 0 470 0 470 -470 0 -470 0 0 -470z m190
350 l0 -70 -65 0 -65 0 0 70 0 70 65 0 65 0 0 -70z m168 -2 l3 -68 -66 0 -65
0 0 70 0 71 63 -3 62 -3 3 -67z m-178 -168 l0 -60 -60 0 -60 0 0 60 0 60 60 0
60 0 0 -60z m-80 -390 c0 -44 3 -80 6 -80 3 0 29 20 57 45 29 25 55 45 59 45
17 0 6 -20 -28 -49 l-35 -31 42 -60 c23 -33 39 -63 36 -67 -9 -9 -34 15 -69
65 -29 42 -31 43 -49 26 -13 -11 -19 -30 -19 -56 0 -27 -4 -38 -12 -36 -10 3
-14 43 -16 141 -2 117 0 137 13 137 12 0 15 -15 15 -80z m230 -5 c16 20 64 19
85 -1 15 -15 17 -15 34 0 26 24 77 21 95 -6 21 -29 23 -192 4 -186 -9 3 -14
32 -16 85 -3 89 -15 110 -57 99 -29 -7 -48 -64 -44 -134 2 -29 -1 -47 -9 -50
-9 -3 -12 18 -12 76 0 106 -31 141 -80 92 -16 -16 -20 -33 -20 -96 0 -56 -3
-75 -12 -72 -14 5 -24 168 -13 197 6 14 8 14 19 -2 12 -15 15 -15 26 -2z m415
-10 c14 -13 25 -29 25 -35 0 -18 -22 -11 -42 15 -25 32 -52 32 -83 0 -31 -30
-33 -82 -4 -119 28 -35 63 -34 91 4 24 33 38 38 38 15 0 -28 -47 -65 -82 -65
-44 0 -74 22 -88 65 -34 103 74 192 145 120z"/>
<path d="M117 1213 c-4 -3 -7 -23 -7 -44 0 -34 3 -37 32 -41 57 -9 68 -1 68
48 l0 44 -43 0 c-24 0 -47 -3 -50 -7z"/>
<path d="M1680 727 c0 -125 4 -152 19 -143 10 6 1 276 -10 276 -5 0 -9 -56 -9
-133z"/>
<path d="M1732 725 c2 -82 7 -135 13 -135 6 0 11 53 13 135 2 117 0 135 -13
135 -13 0 -15 -18 -13 -135z"/>
<path d="M1620 835 c0 -8 7 -15 15 -15 8 0 15 7 15 15 0 8 -7 15 -15 15 -8 0
-15 -7 -15 -15z"/>
<path d="M1123 766 c-24 -21 -26 -26 -16 -49 9 -19 26 -30 60 -40 58 -17 77
-42 49 -63 -29 -21 -62 -17 -84 11 -24 30 -32 31 -32 6 0 -46 100 -70 133 -33
20 22 22 65 5 80 -7 5 -32 15 -56 22 -49 13 -64 36 -37 56 27 20 43 17 69 -11
26 -28 36 -31 36 -11 0 20 -48 56 -76 56 -12 0 -35 -11 -51 -24z"/>
<path d="M1303 766 c-22 -19 -25 -27 -16 -37 10 -10 14 -9 19 5 14 36 86 42
98 9 10 -24 -10 -40 -57 -46 -42 -6 -77 -34 -77 -63 0 -44 74 -69 117 -39 19
13 22 13 27 -2 13 -32 19 -2 17 79 -1 70 -5 86 -22 101 -30 24 -73 21 -106 -7z
m107 -101 c0 -22 -45 -65 -68 -65 -42 0 -54 63 -14 73 41 11 82 7 82 -8z"/>
<path d="M1813 780 c-12 -5 -25 -21 -29 -35 -8 -34 16 -61 64 -70 60 -11 75
-31 46 -59 -23 -24 -60 -19 -82 9 -24 30 -32 31 -32 6 0 -26 37 -51 75 -51 73
0 105 74 45 105 -16 8 -37 15 -48 15 -39 0 -56 42 -23 60 25 13 71 -3 71 -25
0 -17 16 -20 25 -5 9 15 -41 60 -67 59 -13 0 -33 -4 -45 -9z"/>
<path d="M1474 691 c49 -140 53 -140 104 2 26 73 29 88 16 85 -10 -2 -24 -27
-36 -68 -10 -36 -22 -72 -25 -80 -3 -9 -17 19 -32 65 -17 48 -34 81 -43 83
-12 2 -9 -16 16 -87z"/>
<path d="M1622 685 c4 -127 22 -129 26 -2 2 83 0 97 -13 97 -13 0 -15 -14 -13
-95z"/>
</g>
</svg>
